<svg xmlns="http://www.w3.org/2000/svg" version="1.1">
<rect width = "100%" height = "100%" fill = " #000000"/>
<line x1="350" y1="150" x2="341.355" y2="190.674" stroke-width="1" stroke="#ff0060"/> 
<line x1="341.355" y1="190.674" x2="316.913" y2="224.314" stroke-width="1" stroke="#ff0060"/> 
<line x1="316.913" y1="224.314" x2="280.902" y2="245.106" stroke-width="1" stroke="#ff0060"/> 
<line x1="280.902" y1="245.106" x2="239.547" y2="249.452" stroke-width="1" stroke="#ff0060"/> 
<line x1="239.547" y1="249.452" x2="200" y2="236.603" stroke-width="1" stroke="#ff0060"/> 
<line x1="200" y1="236.603" x2="169.098" y2="208.779" stroke-width="1" stroke="#ff0060"/> 
<line x1="169.098" y1="208.779" x2="152.185" y2="170.791" stroke-width="1" stroke="#ff0060"/> 
<line x1="152.185" y1="170.791" x2="152.185" y2="129.209" stroke-width="1" stroke="#ff0060"/> 
<line x1="152.185" y1="129.209" x2="169.098" y2="91.2215" stroke-width="1" stroke="#ff0060"/> 
<line x1="169.098" y1="91.2215" x2="200" y2="63.3975" stroke-width="1" stroke="#ff0060"/> 
<line x1="200" y1="63.3975" x2="239.547" y2="50.5478" stroke-width="1" stroke="#ff0060"/> 
<line x1="239.547" y1="50.5478" x2="280.902" y2="54.8943" stroke-width="1" stroke="#ff0060"/> 
<line x1="280.902" y1="54.8943" x2="316.913" y2="75.6855" stroke-width="1" stroke="#ff0060"/> 
<line x1="316.913" y1="75.6855" x2="341.355" y2="109.326" stroke-width="1" stroke="#ff0060"/> 
<line x1="350" y1="150" x2="341.355" y2="109.326" stroke-width="1" stroke="#ff0060"/> 
<line x1="340" y1="150" x2="332.219" y2="186.606" stroke-width="1" stroke="#00ffff"/> 
<line x1="332.219" y1="186.606" x2="310.222" y2="216.883" stroke-width="1" stroke="#00ffff"/> 
<line x1="310.222" y1="216.883" x2="277.812" y2="235.595" stroke-width="1" stroke="#00ffff"/> 
<line x1="277.812" y1="235.595" x2="240.592" y2="239.507" stroke-width="1" stroke="#00ffff"/> 
<line x1="240.592" y1="239.507" x2="205" y2="227.942" stroke-width="1" stroke="#00ffff"/> 
<line x1="205" y1="227.942" x2="177.188" y2="202.901" stroke-width="1" stroke="#00ffff"/> 
<line x1="177.188" y1="202.901" x2="161.967" y2="168.712" stroke-width="1" stroke="#00ffff"/> 
<line x1="161.967" y1="168.712" x2="161.967" y2="131.288" stroke-width="1" stroke="#00ffff"/> 
<line x1="161.967" y1="131.288" x2="177.188" y2="97.0993" stroke-width="1" stroke="#00ffff"/> 
<line x1="177.188" y1="97.0993" x2="205" y2="72.0577" stroke-width="1" stroke="#00ffff"/> 
<line x1="205" y1="72.0577" x2="240.592" y2="60.493" stroke-width="1" stroke="#00ffff"/> 
<line x1="240.592" y1="60.493" x2="277.812" y2="64.4049" stroke-width="1" stroke="#00ffff"/> 
<line x1="277.812" y1="64.4049" x2="310.222" y2="83.117" stroke-width="1" stroke="#00ffff"/> 
<line x1="310.222" y1="83.117" x2="332.219" y2="113.394" stroke-width="1" stroke="#00ffff"/> 
<line x1="340" y1="150" x2="332.219" y2="113.394" stroke-width="1" stroke="#00ffff"/> 
<line x1="330" y1="150" x2="323.084" y2="182.539" stroke-width="1" stroke="#ff0060"/> 
<line x1="323.084" y1="182.539" x2="303.53" y2="209.452" stroke-width="1" stroke="#ff0060"/> 
<line x1="303.53" y1="209.452" x2="274.721" y2="226.085" stroke-width="1" stroke="#ff0060"/> 
<line x1="274.721" y1="226.085" x2="241.638" y2="229.562" stroke-width="1" stroke="#ff0060"/> 
<line x1="241.638" y1="229.562" x2="210" y2="219.282" stroke-width="1" stroke="#ff0060"/> 
<line x1="210" y1="219.282" x2="185.279" y2="197.023" stroke-width="1" stroke="#ff0060"/> 
<line x1="185.279" y1="197.023" x2="171.748" y2="166.633" stroke-width="1" stroke="#ff0060"/> 
<line x1="171.748" y1="166.633" x2="171.748" y2="133.367" stroke-width="1" stroke="#ff0060"/> 
<line x1="171.748" y1="133.367" x2="185.279" y2="102.977" stroke-width="1" stroke="#ff0060"/> 
<line x1="185.279" y1="102.977" x2="210" y2="80.718" stroke-width="1" stroke="#ff0060"/> 
<line x1="210" y1="80.718" x2="241.638" y2="70.4382" stroke-width="1" stroke="#ff0060"/> 
<line x1="241.638" y1="70.4382" x2="274.721" y2="73.9155" stroke-width="1" stroke="#ff0060"/> 
<line x1="274.721" y1="73.9155" x2="303.53" y2="90.5484" stroke-width="1" stroke="#ff0060"/> 
<line x1="303.53" y1="90.5484" x2="323.084" y2="117.461" stroke-width="1" stroke="#ff0060"/> 
<line x1="330" y1="150" x2="323.084" y2="117.461" stroke-width="1" stroke="#ff0060"/> 
<line x1="320" y1="150" x2="313.948" y2="178.472" stroke-width="1" stroke="#00ffff"/> 
<line x1="313.948" y1="178.472" x2="296.839" y2="202.02" stroke-width="1" stroke="#00ffff"/> 
<line x1="296.839" y1="202.02" x2="271.631" y2="216.574" stroke-width="1" stroke="#00ffff"/> 
<line x1="271.631" y1="216.574" x2="242.683" y2="219.617" stroke-width="1" stroke="#00ffff"/> 
<line x1="242.683" y1="219.617" x2="215" y2="210.622" stroke-width="1" stroke="#00ffff"/> 
<line x1="215" y1="210.622" x2="193.369" y2="191.145" stroke-width="1" stroke="#00ffff"/> 
<line x1="193.369" y1="191.145" x2="181.53" y2="164.554" stroke-width="1" stroke="#00ffff"/> 
<line x1="181.53" y1="164.554" x2="181.53" y2="135.446" stroke-width="1" stroke="#00ffff"/> 
<line x1="181.53" y1="135.446" x2="193.369" y2="108.855" stroke-width="1" stroke="#00ffff"/> 
<line x1="193.369" y1="108.855" x2="215" y2="89.3782" stroke-width="1" stroke="#00ffff"/> 
<line x1="215" y1="89.3782" x2="242.683" y2="80.3835" stroke-width="1" stroke="#00ffff"/> 
<line x1="242.683" y1="80.3835" x2="271.631" y2="83.426" stroke-width="1" stroke="#00ffff"/> 
<line x1="271.631" y1="83.426" x2="296.839" y2="97.9799" stroke-width="1" stroke="#00ffff"/> 
<line x1="296.839" y1="97.9799" x2="313.948" y2="121.528" stroke-width="1" stroke="#00ffff"/> 
<line x1="320" y1="150" x2="313.948" y2="121.528" stroke-width="1" stroke="#00ffff"/> 
<ellipse cx="250" cy="150" rx="220" ry="110" fill="none" stroke-width="1" stroke="#ffffff"/>
<line x1="180" y1="300" x2="180" y2="300" stroke-width="1" stroke="#00ffff"/> 
<line x1="180" y1="300" x2="180" y2="360" stroke-width="1" stroke="#00ffff"/> 
<line x1="180" y1="300" x2="180" y2="360" stroke-width="1" stroke="#00ffff"/> 
<line x1="180" y1="360" x2="180" y2="360" stroke-width="1" stroke="#00ffff"/> 
<line x1="180" y1="360" x2="210" y2="360" stroke-width="1" stroke="#00ffff"/> 
<line x1="210" y1="360" x2="210" y2="360" stroke-width="1" stroke="#00ffff"/> 
<line x1="180" y1="360" x2="180" y2="360" stroke-width="1" stroke="#00ffff"/> 
<line x1="180" y1="360" x2="210" y2="360" stroke-width="1" stroke="#00ffff"/> 
<line x1="300" y1="300" x2="300" y2="300" stroke-width="1" stroke="#00ffff"/> 
<line x1="300" y1="300" x2="300" y2="360" stroke-width="1" stroke="#00ffff"/> 
<line x1="300" y1="300" x2="300" y2="360" stroke-width="1" stroke="#00ffff"/> 
<line x1="300" y1="360" x2="300" y2="360" stroke-width="1" stroke="#00ffff"/> 
<line x1="300" y1="360" x2="330" y2="360" stroke-width="1" stroke="#00ffff"/> 
<line x1="330" y1="360" x2="330" y2="360" stroke-width="1" stroke="#00ffff"/> 
<line x1="300" y1="360" x2="300" y2="360" stroke-width="1" stroke="#00ffff"/> 
<line x1="300" y1="360" x2="330" y2="360" stroke-width="1" stroke="#00ffff"/> 
<ellipse cx="250" cy="330" rx="20" ry="30" fill="none" stroke-width="1" stroke="#00ffff"/>
<ellipse cx="250" cy="330" rx="19" ry="29" fill="none" stroke-width="1" stroke="#00ffff"/>
</svg>
